<svg width="250" height="65" viewBox="0 0 250 65" fill="none" xmlns="http://www.w3.org/2000/svg">
<path d="M235.924 46.0851C243.539 39.8258 244.682 28.585 238.47 21.0277C232.259 13.4704 221.009 12.4144 213.394 18.6737C210.381 21.1499 208.295 24.4491 207.362 28.2146L203.547 43.6053C203.1 45.4129 203.534 47.346 204.71 48.7763C205.885 50.2065 207.698 51.0071 209.558 50.9177L225.396 50.1553C229.271 49.9688 232.911 48.5613 235.924 46.0851Z" fill="url(#paint0_linear_5_4976)"/>
<path d="M12.2323 0.50952C11.61 0.504522 10.9949 0.642882 10.4348 0.913874C9.87462 1.18487 9.38442 1.58121 9.00218 2.07216C8.73761 1.57406 8.33586 1.16218 7.84446 0.885241C7.35306 0.608306 6.7926 0.477922 6.2294 0.50952C5.65449 0.516028 5.08996 0.663485 4.58533 0.938961C4.0807 1.21444 3.65139 1.60951 3.33506 2.08953V1.97956C3.33506 1.60964 3.18808 1.25486 2.92646 0.993288C2.66483 0.731711 2.30999 0.584757 1.93999 0.584757C1.57 0.584757 1.21516 0.731711 0.953529 0.993288C0.691902 1.25486 0.544922 1.60964 0.544922 1.97956V9.25455C0.544922 9.62447 0.691902 9.97925 0.953529 10.2408C1.21516 10.5024 1.57 10.6494 1.93999 10.6494C2.30999 10.6494 2.66483 10.5024 2.92646 10.2408C3.18808 9.97925 3.33506 9.62447 3.33506 9.25455V5.04698C3.33506 3.72741 3.97761 3.04448 5.02536 3.04448C6.07311 3.04448 6.66355 3.72741 6.66355 5.04698V9.25455C6.66355 9.62447 6.81053 9.97925 7.07216 10.2408C7.33379 10.5024 7.68863 10.6494 8.05862 10.6494C8.42862 10.6494 8.78346 10.5024 9.04509 10.2408C9.30671 9.97925 9.45369 9.62447 9.45369 9.25455V5.04698C9.45369 3.72741 10.0962 3.04448 11.144 3.04448C12.1917 3.04448 12.7764 3.72741 12.7764 5.04698V9.25455C12.7764 9.62447 12.9234 9.97925 13.185 10.2408C13.4466 10.5024 13.8015 10.6494 14.1715 10.6494C14.5415 10.6494 14.8963 10.5024 15.1579 10.2408C15.4196 9.97925 15.5665 9.62447 15.5665 9.25455V4.12675C15.5839 1.75964 14.3104 0.50952 12.2323 0.50952Z" fill="#EEEEFF"/>
<path d="M24.7569 0.580863C24.4475 0.587556 24.1488 0.695251 23.9063 0.887522C23.6639 1.07979 23.491 1.34608 23.414 1.64578L21.3706 7.35812L19.2403 1.62842C19.1702 1.32652 18.9986 1.05782 18.7541 0.867177C18.5097 0.67653 18.2073 0.575468 17.8974 0.580863C17.7175 0.573772 17.538 0.60339 17.37 0.667909C17.2019 0.732429 17.0487 0.830497 16.9198 0.956136C16.7909 1.08177 16.689 1.23235 16.6202 1.39868C16.5514 1.56501 16.5172 1.74361 16.5197 1.92358C16.5345 2.14449 16.5853 2.36149 16.6702 2.566L20.0276 10.3503L19.935 10.5702C19.8625 10.7664 19.7242 10.9313 19.5437 11.0368C19.3632 11.1424 19.1516 11.182 18.9451 11.149C18.7476 11.1425 18.5524 11.1054 18.3662 11.039C18.2179 10.9855 18.0608 10.96 17.9032 10.9638C17.7542 10.9652 17.607 10.9965 17.4704 11.0559C17.3338 11.1154 17.2106 11.2016 17.108 11.3096C17.0054 11.4176 16.9255 11.5451 16.8732 11.6845C16.8209 11.8239 16.7971 11.9725 16.8033 12.1213C16.8047 12.3835 16.8912 12.6382 17.0499 12.847C17.2086 13.0557 17.4308 13.2073 17.6832 13.2788C18.171 13.4554 18.6869 13.5417 19.2056 13.5335C20.8785 13.5335 21.7063 12.7811 22.5341 10.7786L25.9668 2.53128C26.0458 2.32 26.0888 2.09699 26.0941 1.87149C26.0942 1.69804 26.0594 1.52634 25.9916 1.36666C25.9239 1.20698 25.8246 1.06258 25.6998 0.942112C25.575 0.82164 25.4272 0.72756 25.2652 0.665492C25.1032 0.603423 24.9303 0.57464 24.7569 0.580863Z" fill="white"/>
<path d="M99.789 15.9961C99.3236 15.9954 98.8625 16.0865 98.4324 16.2642C98.0022 16.4419 97.6114 16.7028 97.2823 17.0319C96.9531 17.3609 96.6922 17.7517 96.5145 18.1818C96.3367 18.6118 96.2456 19.0728 96.2463 19.5381V36.3626L82.3998 18.1896C81.4215 16.9279 80.4201 16.1061 78.6835 16.1061H77.9368C77.4644 16.1022 76.9959 16.1924 76.5588 16.3714C76.1216 16.5504 75.7244 16.8145 75.3904 17.1485C75.0563 17.4825 74.7921 17.8796 74.6131 18.3167C74.4341 18.7538 74.3439 19.2221 74.3478 19.6944V45.6227C74.3478 46.5621 74.721 47.4631 75.3854 48.1273C76.0498 48.7916 76.9509 49.1647 77.8904 49.1647C78.83 49.1647 79.7311 48.7916 80.3955 48.1273C81.0599 47.4631 81.4331 46.5621 81.4331 45.6227V28.1558L95.789 46.9828C96.7557 48.2445 97.7861 49.0953 99.5227 49.0953H99.7543C100.227 49.0991 100.695 49.009 101.132 48.83C101.569 48.651 101.967 48.3869 102.301 48.0529C102.635 47.7189 102.899 47.3218 103.078 46.8847C103.257 46.4476 103.347 45.9793 103.343 45.507V19.5381C103.344 19.0718 103.253 18.6099 103.074 18.1791C102.896 17.7482 102.634 17.357 102.303 17.0278C101.973 16.6985 101.581 16.4379 101.149 16.2609C100.718 16.0838 100.255 15.9938 99.789 15.9961Z" fill="white"/>
<path d="M69.5349 20.3579C69.5349 17.967 67.5963 16.0288 65.2049 16.0288C62.8136 16.0288 60.875 17.967 60.875 20.3579V44.8394C60.875 47.2303 62.8136 49.1685 65.2049 49.1685C67.5963 49.1685 69.5349 47.2303 69.5349 44.8394V20.3579Z" fill="white"/>
<path d="M164.111 42.5079H149.333V35.6612H161.779C162.198 35.665 162.615 35.5859 163.004 35.4285C163.393 35.271 163.748 35.0383 164.047 34.7436C164.346 34.4489 164.583 34.0981 164.747 33.7113C164.91 33.3246 164.995 32.9094 164.997 32.4896C164.996 31.6366 164.656 30.819 164.053 30.2159C163.449 29.6128 162.632 29.2732 161.779 29.2717H149.333V22.6565H163.874C164.294 22.6603 164.71 22.5812 165.1 22.4238C165.489 22.2663 165.843 22.0336 166.142 21.7389C166.441 21.4442 166.679 21.0935 166.842 20.7067C167.005 20.3199 167.09 19.9047 167.093 19.4849C167.09 18.633 166.749 17.8169 166.146 17.215C165.543 16.6131 164.726 16.2743 163.874 16.2728H145.79C145.318 16.269 144.849 16.3591 144.412 16.5381C143.975 16.7171 143.578 16.9812 143.244 17.3152C142.91 17.6492 142.646 18.0463 142.467 18.4834C142.288 18.9205 142.197 19.3888 142.201 19.8611V45.3265C142.197 45.7987 142.288 46.2671 142.467 46.7042C142.646 47.1413 142.91 47.5384 143.244 47.8724C143.578 48.2063 143.975 48.4705 144.412 48.6495C144.849 48.8284 145.318 48.9186 145.79 48.9148H164.111C164.531 48.9193 164.947 48.8409 165.336 48.684C165.724 48.5271 166.078 48.2948 166.377 48.0006C166.676 47.7063 166.913 47.3558 167.076 46.9694C167.238 46.583 167.323 46.1682 167.324 45.7489C167.326 45.3251 167.245 44.905 167.085 44.5126C166.925 44.1203 166.688 43.7634 166.39 43.4623C166.092 43.1613 165.737 42.922 165.346 42.7583C164.955 42.5945 164.535 42.5094 164.111 42.5079Z" fill="white"/>
<path d="M120.89 16.2728H111.755C111.283 16.269 110.814 16.3591 110.377 16.5381C109.94 16.7171 109.543 16.9812 109.209 17.3152C108.875 17.6492 108.61 18.0463 108.431 18.4834C108.252 18.9205 108.162 19.3888 108.166 19.8611V45.3265C108.162 45.7987 108.252 46.2671 108.431 46.7042C108.61 47.1413 108.875 47.5384 109.209 47.8724C109.543 48.2063 109.94 48.4705 110.377 48.6495C110.814 48.8284 111.283 48.9186 111.755 48.9148H120.89C131.147 48.9148 138.256 41.7845 138.256 32.6054V32.5128C138.233 23.3105 131.147 16.2728 120.89 16.2728ZM130.73 32.6748C130.73 38.4624 126.771 42.4153 120.89 42.4153H115.344V22.7375H120.89C126.765 22.7375 130.73 26.7888 130.73 32.5764V32.6748Z" fill="white"/>
<path d="M198.506 27.1303V27.0377C198.506 23.9587 197.527 21.4006 195.71 19.5833C193.562 17.4361 190.349 16.2728 186.199 16.2728H174.87C174.398 16.269 173.93 16.3591 173.492 16.5381C173.055 16.7171 172.658 16.9812 172.324 17.3152C171.99 17.6492 171.726 18.0463 171.547 18.4834C171.368 18.9205 171.278 19.3888 171.281 19.8611V45.5869C171.281 46.5386 171.659 47.4513 172.333 48.1242C173.006 48.7971 173.918 49.1752 174.87 49.1752C175.822 49.1752 176.735 48.7971 177.408 48.1242C178.081 47.4513 178.459 46.5386 178.459 45.5869V38.4566H184.196L191.189 47.3116C191.583 47.8865 192.112 48.3566 192.73 48.6813C193.347 49.006 194.034 49.1755 194.731 49.1752C195.173 49.1836 195.612 49.1044 196.022 48.9422C196.433 48.78 196.808 48.5379 197.124 48.2301C197.441 47.9222 197.693 47.5546 197.866 47.1486C198.04 46.7426 198.131 46.3062 198.135 45.8647C198.1 44.8373 197.688 43.8587 196.977 43.1156L191.982 37.056C195.941 35.4239 198.506 32.2581 198.506 27.1303ZM191.235 27.5007C191.235 30.2556 189.232 32.1308 185.736 32.1308H178.459V22.7491H185.597C189.07 22.7491 191.235 24.3349 191.235 27.4081V27.5007Z" fill="white"/>
<path d="M49.3996 9.92835C50.9452 9.92685 52.4752 10.2366 53.8984 10.8392C55.3216 11.4418 56.6088 12.3248 57.6832 13.4356C58.1031 13.9304 58.6203 14.3334 59.2027 14.6197C59.785 14.9059 60.4201 15.0693 61.0684 15.0996C61.7166 15.1299 62.3641 15.0265 62.9707 14.7959C63.5773 14.5652 64.1298 14.2122 64.5941 13.7588C65.0583 13.3054 65.4242 12.7613 65.6691 12.1605C65.9139 11.5596 66.0325 10.9148 66.0174 10.2661C66.0023 9.61747 65.8538 8.97887 65.5812 8.39006C65.3086 7.80125 64.9177 7.27484 64.4328 6.84358C61.5176 3.85502 57.7777 1.80281 53.6906 0.948943C49.6036 0.0950728 45.3547 0.478274 41.4865 2.04963C37.6182 3.62098 34.3061 6.3092 31.9728 9.77112C29.6396 13.233 28.3911 17.3116 28.3867 21.4861C28.3867 40.8687 49.3996 64.6846 49.3996 64.6846C51.1655 62.692 52.1944 60.1541 52.3145 57.4945C52.4346 54.8349 51.6387 52.2146 50.0595 50.071L49.4054 49.1623C48.5371 47.8948 47.6688 46.5348 46.7484 45.111C44.2596 41.2096 42.1284 37.0914 40.3809 32.8066C38.679 28.4891 37.8165 24.704 37.8165 21.4977C37.8172 19.9776 38.1174 18.4726 38.7 17.0685C39.2825 15.6645 40.1359 14.3889 41.2115 13.3145C42.2871 12.2402 43.5638 11.3882 44.9687 10.8072C46.3736 10.2262 47.8793 9.92759 49.3996 9.92835Z" fill="white"/>
<path d="M56.4595 28.9574C56.4595 28.9574 56.1759 24.2405 50.092 25.2418C46.343 25.9928 42.8191 27.6024 39.7969 29.9441C36.7748 32.2859 34.3366 35.2961 32.6738 38.7384C34.7166 43.2669 37.1108 47.6287 39.8344 51.7836C39.7214 51.0171 39.6653 50.2433 39.6665 49.4686C39.6777 45.9256 40.9182 42.4963 43.1762 39.7658C45.4343 37.0353 48.5701 35.1728 52.0485 34.4961C57.2583 33.5527 56.4595 28.9574 56.4595 28.9574Z" fill="url(#paint1_linear_5_4976)"/>
<path d="M229.534 39.8732V28.9809C229.534 28.1415 230.198 27.4778 231.037 27.4778C231.877 27.4778 232.54 28.1415 232.54 28.9809V39.8732C232.54 40.7126 231.877 41.3763 231.037 41.3763C230.198 41.3763 229.534 40.7126 229.534 39.8732Z" fill="white"/>
<path d="M213.516 39.9707C213.516 39.756 213.594 39.5413 213.691 39.3266L218.454 28.5709C218.786 27.8291 219.391 27.3801 220.211 27.3801H220.387C221.207 27.3801 221.792 27.8291 222.124 28.5709L226.887 39.3266C226.985 39.5413 227.043 39.7365 227.043 39.9317C227.043 40.732 226.419 41.3762 225.618 41.3762C224.916 41.3762 224.447 40.9663 224.174 40.3416L223.256 38.1944H217.244L216.288 40.4392C216.034 41.0248 215.526 41.3762 214.902 41.3762C214.121 41.3762 213.516 40.7516 213.516 39.9707ZM218.357 35.5396H222.144L220.25 31.0304L218.357 35.5396Z" fill="white"/>
<circle cx="208.924" cy="45.651" r="2.94004" fill="url(#paint2_linear_5_4976)" stroke="white"/>
<defs>
<linearGradient id="paint0_linear_5_4976" x1="238.47" y1="21.0277" x2="204.71" y2="48.7763" gradientUnits="userSpaceOnUse">
<stop stop-color="#F800C0"/>
<stop offset="1" stop-color="#FE8A70"/>
</linearGradient>
<linearGradient id="paint1_linear_5_4976" x1="32.6738" y1="38.4433" x2="56.5" y2="38.4433" gradientUnits="userSpaceOnUse">
<stop stop-color="#FE8A70"/>
<stop offset="1" stop-color="#F800C0"/>
</linearGradient>
<linearGradient id="paint2_linear_5_4976" x1="206.484" y1="45.651" x2="211.364" y2="45.651" gradientUnits="userSpaceOnUse">
<stop stop-color="#7670FF"/>
<stop offset="1" stop-color="#5B42FF"/>
</linearGradient>
</defs>
</svg>
