<svg width="423" height="87" viewBox="0 0 423 87" fill="none" xmlns="http://www.w3.org/2000/svg">
<path d="M403.681 61.2712C413.918 52.8571 415.454 37.7468 407.104 27.5879C398.754 17.429 383.632 16.0094 373.395 24.4235C369.346 27.7522 366.542 32.1871 365.287 37.2489L360.159 57.9377C359.557 60.3676 360.141 62.9661 361.721 64.8887C363.302 66.8114 365.738 67.8875 368.239 67.7673L389.529 66.7425C394.738 66.4918 399.631 64.5998 403.681 61.2712Z" fill="url(#paint0_linear_2489_879)"/>
<path d="M220.684 20.8243C220.058 20.8233 219.438 20.9457 218.86 21.1846C218.282 21.4235 217.757 21.7742 217.314 22.2165C216.872 22.6589 216.521 23.1842 216.282 23.7623C216.043 24.3404 215.921 24.96 215.922 25.5856V48.2018L197.308 23.7729C195.993 22.0768 194.647 20.9721 192.313 20.9721H191.309C190.674 20.9669 190.044 21.0881 189.457 21.3287C188.869 21.5693 188.335 21.9244 187.886 22.3733C187.437 22.8223 187.082 23.3561 186.841 23.9436C186.601 24.5312 186.479 25.1608 186.485 25.7956V60.6497C186.485 61.9125 186.986 63.1235 187.879 64.0165C188.772 64.9094 189.984 65.411 191.247 65.411C192.51 65.411 193.721 64.9094 194.614 64.0165C195.507 63.1235 196.009 61.9125 196.009 60.6497V37.1699L215.307 62.478C216.606 64.174 217.991 65.3177 220.326 65.3177H220.637C221.272 65.3229 221.902 65.2016 222.489 64.9611C223.077 64.7205 223.611 64.3654 224.06 63.9164C224.509 63.4675 224.864 62.9337 225.105 62.3461C225.346 61.7586 225.467 61.129 225.462 60.4941V25.5856C225.463 24.9587 225.34 24.3378 225.1 23.7587C224.86 23.1795 224.508 22.6536 224.064 22.211C223.619 21.7685 223.092 21.4181 222.512 21.1801C221.932 20.9421 221.311 20.8212 220.684 20.8243Z" fill="white"/>
<path d="M180.012 26.6866C180.012 23.4726 177.406 20.8672 174.192 20.8672C170.977 20.8672 168.371 23.4726 168.371 26.6866V59.5957C168.371 62.8096 170.977 65.415 174.192 65.415C177.406 65.415 180.012 62.8096 180.012 59.5957V26.6866Z" fill="white"/>
<path d="M307.148 56.4619H287.282V47.2582H304.012C304.577 47.2633 305.136 47.157 305.66 46.9454C306.183 46.7337 306.659 46.4208 307.061 46.0247C307.463 45.6286 307.783 45.1571 308.002 44.6371C308.221 44.1172 308.336 43.5591 308.339 42.9948C308.337 41.8482 307.88 40.7492 307.069 39.9384C306.258 39.1276 305.159 38.6712 304.012 38.6692H287.282V29.7767H306.829C307.393 29.7819 307.953 29.6755 308.476 29.4639C309 29.2522 309.476 28.9393 309.878 28.5432C310.28 28.1471 310.599 27.6756 310.819 27.1556C311.038 26.6357 311.152 26.0776 311.156 25.5133C311.151 24.3681 310.694 23.271 309.883 22.4619C309.073 21.6528 307.975 21.1975 306.829 21.1955H282.52C281.885 21.1903 281.255 21.3115 280.668 21.5521C280.08 21.7927 279.546 22.1478 279.097 22.5967C278.648 23.0456 278.293 23.5795 278.052 24.167C277.812 24.7546 277.69 25.3841 277.695 26.019V60.2507C277.69 60.8856 277.812 61.5151 278.052 62.1027C278.293 62.6903 278.648 63.2241 279.097 63.673C279.546 64.122 280.08 64.4771 280.668 64.7176C281.255 64.9582 281.885 65.0794 282.52 65.0743H307.148C307.712 65.0804 308.271 64.975 308.794 64.7641C309.316 64.5532 309.792 64.2409 310.194 63.8453C310.595 63.4498 310.914 62.9787 311.133 62.4592C311.351 61.9397 311.465 61.3822 311.467 60.8186C311.47 60.2489 311.361 59.6842 311.145 59.1567C310.93 58.6293 310.612 58.1495 310.211 57.7448C309.81 57.3402 309.333 57.0186 308.807 56.7984C308.282 56.5783 307.718 56.4639 307.148 56.4619Z" fill="white"/>
<path d="M249.045 21.1955H236.766C236.131 21.1903 235.501 21.3115 234.914 21.5521C234.326 21.7927 233.792 22.1478 233.343 22.5967C232.894 23.0456 232.539 23.5795 232.298 24.167C232.058 24.7546 231.936 25.3841 231.942 26.019V60.2507C231.936 60.8856 232.058 61.5151 232.298 62.1027C232.539 62.6903 232.894 63.2241 233.343 63.673C233.792 64.122 234.326 64.4771 234.914 64.7176C235.501 64.9582 236.131 65.0794 236.766 65.0742H249.045C262.834 65.0742 272.389 55.4894 272.389 43.1504V43.0259C272.358 30.6559 262.834 21.1955 249.045 21.1955ZM262.273 43.2438C262.273 51.0237 256.951 56.3374 249.045 56.3374H241.591V29.8856H249.045C256.943 29.8856 262.273 35.3316 262.273 43.1115V43.2438Z" fill="white"/>
<path d="M353.381 35.7906V35.6661C353.381 31.5272 352.066 28.0885 349.623 25.6456C346.736 22.7592 342.417 21.1955 336.838 21.1955H321.61C320.975 21.1903 320.345 21.3115 319.757 21.5521C319.17 21.7927 318.636 22.1478 318.187 22.5967C317.738 23.0456 317.383 23.5795 317.142 24.167C316.901 24.7546 316.78 25.3841 316.785 26.019V60.6008C316.785 61.8801 317.294 63.107 318.198 64.0116C319.103 64.9161 320.33 65.4243 321.61 65.4243C322.889 65.4243 324.116 64.9161 325.021 64.0116C325.926 63.107 326.434 61.8801 326.434 60.6008V51.0159H334.146L343.546 62.9192C344.076 63.692 344.787 64.3239 345.617 64.7604C346.447 65.1968 347.37 65.4247 348.308 65.4243C348.901 65.4357 349.491 65.3292 350.043 65.1112C350.595 64.8931 351.099 64.5677 351.524 64.1538C351.95 63.74 352.289 63.2459 352.522 62.7001C352.756 62.1543 352.878 61.5677 352.883 60.9742C352.836 59.5931 352.282 58.2776 351.327 57.2788L344.612 49.1332C349.934 46.9392 353.381 42.6836 353.381 35.7906ZM343.608 36.2885C343.608 39.9918 340.915 42.5125 336.215 42.5125H326.434V29.9012H336.029C340.698 29.9012 343.608 32.0329 343.608 36.164V36.2885Z" fill="white"/>
<path d="M152.946 12.6675C155.023 12.6654 157.08 13.0819 158.993 13.8919C160.906 14.7019 162.637 15.8889 164.081 17.3821C164.645 18.0471 165.341 18.5889 166.123 18.9737C166.906 19.3586 167.76 19.5782 168.631 19.6189C169.503 19.6597 170.373 19.5207 171.189 19.2106C172.004 18.9005 172.747 18.426 173.371 17.8165C173.995 17.207 174.487 16.4757 174.816 15.668C175.145 14.8603 175.304 13.9935 175.284 13.1215C175.264 12.2496 175.064 11.3911 174.698 10.5996C174.331 9.80812 173.806 9.10049 173.154 8.52076C169.235 4.5034 164.208 1.74474 158.714 0.596925C153.22 -0.550885 147.508 -0.0357685 142.309 2.07652C137.109 4.1888 132.656 7.80243 129.52 12.4561C126.383 17.1098 124.705 22.5924 124.699 28.204C124.699 54.2589 152.946 86.2733 152.946 86.2733C155.32 83.5948 156.703 80.1831 156.864 76.608C157.026 73.0329 155.956 69.5106 153.833 66.629L152.953 65.4076C151.786 63.7038 150.619 61.8755 149.382 59.9616C146.036 54.7172 143.171 49.1813 140.822 43.4215C138.535 37.6177 137.375 32.5296 137.375 28.2195C137.376 26.1762 137.78 24.153 138.563 22.2656C139.346 20.3782 140.493 18.6635 141.939 17.2193C143.385 15.7752 145.101 14.6299 146.989 13.8489C148.878 13.0679 150.902 12.6664 152.946 12.6675Z" fill="white"/>
<path d="M162.439 38.2467C162.439 38.2467 162.057 31.906 153.879 33.252C148.84 34.2615 144.103 36.4252 140.04 39.5731C135.978 42.7209 132.7 46.7674 130.465 51.3948C133.211 57.4822 136.429 63.3454 140.09 68.9307C139.938 67.9004 139.863 66.8602 139.865 65.8187C139.88 61.0561 141.547 56.4463 144.583 52.7758C147.618 49.1054 151.833 46.6017 156.509 45.6921C163.512 44.4239 162.439 38.2467 162.439 38.2467Z" fill="url(#paint1_linear_2489_879)"/>
<path d="M395.091 52.9208V38.2788C395.091 37.1504 395.984 36.2583 397.112 36.2583C398.24 36.2583 399.132 37.1504 399.132 38.2788V52.9208C399.132 54.0491 398.24 54.9413 397.112 54.9413C395.984 54.9413 395.091 54.0491 395.091 52.9208Z" fill="white"/>
<path d="M373.559 53.0518C373.559 52.7632 373.664 52.4746 373.795 52.1859L380.197 37.7276C380.643 36.7305 381.457 36.127 382.559 36.127H382.795C383.897 36.127 384.684 36.7305 385.13 37.7276L391.533 52.1859C391.664 52.4746 391.743 52.737 391.743 52.9994C391.743 54.0752 390.903 54.9411 389.827 54.9411C388.883 54.9411 388.253 54.3901 387.886 53.5504L386.652 50.664H378.57L377.285 53.6816C376.944 54.4688 376.261 54.9411 375.422 54.9411C374.372 54.9411 373.559 54.1014 373.559 53.0518ZM380.066 47.0953H385.157L382.611 41.0339L380.066 47.0953Z" fill="white"/>
<circle cx="367.385" cy="60.6882" r="3.78002" fill="url(#paint2_linear_2489_879)" stroke="white"/>
<path d="M2.184 52.206V37.698C2.184 36.58 3.068 35.696 4.186 35.696H4.628C5.486 35.696 6.084 36.138 6.448 36.736L11.284 44.614L16.146 36.71C16.562 36.034 17.134 35.696 17.94 35.696H18.382C19.5 35.696 20.384 36.58 20.384 37.698V52.154C20.384 53.272 19.5 54.156 18.382 54.156C17.29 54.156 16.406 53.246 16.406 52.154V43.08L12.896 48.488C12.48 49.112 11.96 49.502 11.232 49.502C10.504 49.502 9.984 49.112 9.568 48.488L6.11 43.158V52.206C6.11 53.298 5.226 54.156 4.134 54.156C3.042 54.156 2.184 53.298 2.184 52.206ZM33.5963 54.312C27.9803 54.312 23.9503 50.126 23.9503 44.952V44.9C23.9503 39.726 28.0323 35.488 33.6483 35.488C39.2643 35.488 43.2943 39.674 43.2943 44.848V44.9C43.2943 50.074 39.2123 54.312 33.5963 54.312ZM33.6483 50.62C36.8723 50.62 39.1083 48.072 39.1083 44.952V44.9C39.1083 41.78 36.8203 39.18 33.5963 39.18C30.3723 39.18 28.1363 41.728 28.1363 44.848V44.9C28.1363 48.02 30.4243 50.62 33.6483 50.62ZM50.297 52.154V39.492H46.449C45.435 39.492 44.603 38.66 44.603 37.646C44.603 36.632 45.435 35.8 46.449 35.8H58.149C59.163 35.8 59.995 36.632 59.995 37.646C59.995 38.66 59.163 39.492 58.149 39.492H54.301V52.154C54.301 53.272 53.417 54.156 52.299 54.156C51.181 54.156 50.297 53.272 50.297 52.154ZM70.9713 54.312C65.3553 54.312 61.3253 50.126 61.3253 44.952V44.9C61.3253 39.726 65.4073 35.488 71.0233 35.488C76.6393 35.488 80.6693 39.674 80.6693 44.848V44.9C80.6693 50.074 76.5873 54.312 70.9713 54.312ZM71.0233 50.62C74.2473 50.62 76.4833 48.072 76.4833 44.952V44.9C76.4833 41.78 74.1953 39.18 70.9713 39.18C67.7473 39.18 65.5113 41.728 65.5113 44.848V44.9C65.5113 48.02 67.7993 50.62 71.0233 50.62ZM84.2211 52.154V37.802C84.2211 36.684 85.1051 35.8 86.2231 35.8H92.5411C94.8551 35.8 96.6491 36.45 97.8451 37.646C98.8591 38.66 99.4051 40.09 99.4051 41.806V41.858C99.4051 44.718 97.9751 46.486 95.7651 47.396L98.5471 50.776C98.9371 51.27 99.1971 51.686 99.1971 52.31C99.1971 53.428 98.2611 54.156 97.2991 54.156C96.3891 54.156 95.7911 53.714 95.3231 53.116L91.4231 48.176H88.2251V52.154C88.2251 53.272 87.3411 54.156 86.2231 54.156C85.1051 54.156 84.2211 53.272 84.2211 52.154ZM88.2251 44.64H92.2811C94.2311 44.64 95.3491 43.6 95.3491 42.066V42.014C95.3491 40.298 94.1531 39.414 92.2031 39.414H88.2251V44.64ZM109.484 54.26C107.092 54.26 104.674 53.532 102.646 52.076C102.204 51.764 101.892 51.192 101.892 50.568C101.892 49.528 102.724 48.722 103.764 48.722C104.284 48.722 104.648 48.904 104.908 49.086C106.286 50.1 107.794 50.724 109.562 50.724C111.2 50.724 112.188 50.074 112.188 49.008V48.956C112.188 47.942 111.564 47.422 108.522 46.642C104.856 45.706 102.49 44.692 102.49 41.078V41.026C102.49 37.724 105.142 35.54 108.86 35.54C111.07 35.54 112.994 36.112 114.632 37.152C115.074 37.412 115.516 37.958 115.516 38.738C115.516 39.778 114.684 40.584 113.644 40.584C113.254 40.584 112.942 40.48 112.63 40.298C111.304 39.518 110.056 39.076 108.808 39.076C107.274 39.076 106.468 39.778 106.468 40.662V40.714C106.468 41.91 107.248 42.3 110.394 43.106C114.086 44.068 116.166 45.394 116.166 48.566V48.618C116.166 52.232 113.41 54.26 109.484 54.26Z" fill="white"/>
<defs>
<linearGradient id="paint0_linear_2489_879" x1="407.104" y1="27.5879" x2="361.721" y2="64.8887" gradientUnits="userSpaceOnUse">
<stop stop-color="#F800C0"/>
<stop offset="1" stop-color="#FE8A70"/>
</linearGradient>
<linearGradient id="paint1_linear_2489_879" x1="130.465" y1="50.998" x2="162.493" y2="50.998" gradientUnits="userSpaceOnUse">
<stop stop-color="#FE8A70"/>
<stop offset="1" stop-color="#F800C0"/>
</linearGradient>
<linearGradient id="paint2_linear_2489_879" x1="364.105" y1="60.6882" x2="370.666" y2="60.6882" gradientUnits="userSpaceOnUse">
<stop stop-color="#7670FF"/>
<stop offset="1" stop-color="#5B42FF"/>
</linearGradient>
</defs>
</svg>
